<?xml version="1.0" encoding="utf-8" standalone="no"?>
<!DOCTYPE svg PUBLIC "-//W3C//DTD SVG 1.1//EN"
  "http://www.w3.org/Graphics/SVG/1.1/DTD/svg11.dtd">
<svg xmlns:xlink="http://www.w3.org/1999/xlink" width="648pt" height="244.8pt" viewBox="0 0 648 244.8" xmlns="http://www.w3.org/2000/svg" version="1.1">
 <metadata>
  <rdf:RDF xmlns:dc="http://purl.org/dc/elements/1.1/" xmlns:cc="http://creativecommons.org/ns#" xmlns:rdf="http://www.w3.org/1999/02/22-rdf-syntax-ns#">
   <cc:Work>
    <dc:type rdf:resource="http://purl.org/dc/dcmitype/StillImage"/>
    <dc:format>image/svg+xml</dc:format>
    <dc:creator>
     <cc:Agent>
      <dc:title>Matplotlib v3.11.1, https://matplotlib.org/</dc:title>
     </cc:Agent>
    </dc:creator>
   </cc:Work>
  </rdf:RDF>
 </metadata>
 <defs>
  <style type="text/css">*{stroke-linejoin: round; stroke-linecap: butt}</style>
 </defs>
 <g id="figure_1">
  <g id="patch_1">
   <path d="M 0 244.8 
L 648 244.8 
L 648 0 
L 0 0 
z
" style="fill: #ffffff"/>
  </g>
  <g id="axes_1">
   <g id="patch_2">
    <path d="M 45.92 208.551797 
L 637.2 208.551797 
L 637.2 24.72 
L 45.92 24.72 
z
" style="fill: #ffffff"/>
   </g>
   <g id="matplotlib.axis_1">
    <g id="xtick_1">
     <g id="line2d_1">
      <path d="M 111.991765 208.551797 
L 111.991765 24.72 
" clip-path="url(#pa94dd9d62d)" style="fill: none; stroke: #b0b0b0; stroke-opacity: 0.25; stroke-width: 0.6; stroke-linecap: square"/>
     </g>
     <g id="line2d_2">
      <defs>
       <path id="m143ee4494b" d="M 0 0 
L 0 3.5 
" style="stroke: #000000; stroke-width: 0.8"/>
      </defs>
      <g>
       <use xlink:href="#m143ee4494b" x="111.991765" y="208.551797" style="stroke: #000000; stroke-width: 0.8"/>
      </g>
     </g>
     <g id="text_1">
      <!-- 08-25 -->
      <g transform="translate(90.898984 232.438732) rotate(-30) scale(0.08 -0.08)">
       <defs>
        <path id="DejaVuSans-13" d="M 2034 4250 
Q 1547 4250 1301 3770 
Q 1056 3291 1056 2328 
Q 1056 1369 1301 889 
Q 1547 409 2034 409 
Q 2525 409 2770 889 
Q 3016 1369 3016 2328 
Q 3016 3291 2770 3770 
Q 2525 4250 2034 4250 
z
M 2034 4750 
Q 2819 4750 3233 4129 
Q 3647 3509 3647 2328 
Q 3647 1150 3233 529 
Q 2819 -91 2034 -91 
Q 1250 -91 836 529 
Q 422 1150 422 2328 
Q 422 3509 836 4129 
Q 1250 4750 2034 4750 
z
" transform="scale(0.015625)"/>
        <path id="DejaVuSans-1b" d="M 2034 2216 
Q 1584 2216 1326 1975 
Q 1069 1734 1069 1313 
Q 1069 891 1326 650 
Q 1584 409 2034 409 
Q 2484 409 2743 651 
Q 3003 894 3003 1313 
Q 3003 1734 2745 1975 
Q 2488 2216 2034 2216 
z
M 1403 2484 
Q 997 2584 770 2862 
Q 544 3141 544 3541 
Q 544 4100 942 4425 
Q 1341 4750 2034 4750 
Q 2731 4750 3128 4425 
Q 3525 4100 3525 3541 
Q 3525 3141 3298 2862 
Q 3072 2584 2669 2484 
Q 3125 2378 3379 2068 
Q 3634 1759 3634 1313 
Q 3634 634 3220 271 
Q 2806 -91 2034 -91 
Q 1263 -91 848 271 
Q 434 634 434 1313 
Q 434 1759 690 2068 
Q 947 2378 1403 2484 
z
M 1172 3481 
Q 1172 3119 1398 2916 
Q 1625 2713 2034 2713 
Q 2441 2713 2670 2916 
Q 2900 3119 2900 3481 
Q 2900 3844 2670 4047 
Q 2441 4250 2034 4250 
Q 1625 4250 1398 4047 
Q 1172 3844 1172 3481 
z
" transform="scale(0.015625)"/>
        <path id="DejaVuSans-10" d="M 313 2009 
L 1997 2009 
L 1997 1497 
L 313 1497 
L 313 2009 
z
" transform="scale(0.015625)"/>
        <path id="DejaVuSans-15" d="M 1228 531 
L 3431 531 
L 3431 0 
L 469 0 
L 469 531 
Q 828 903 1448 1529 
Q 2069 2156 2228 2338 
Q 2531 2678 2651 2914 
Q 2772 3150 2772 3378 
Q 2772 3750 2511 3984 
Q 2250 4219 1831 4219 
Q 1534 4219 1204 4116 
Q 875 4013 500 3803 
L 500 4441 
Q 881 4594 1212 4672 
Q 1544 4750 1819 4750 
Q 2544 4750 2975 4387 
Q 3406 4025 3406 3419 
Q 3406 3131 3298 2873 
Q 3191 2616 2906 2266 
Q 2828 2175 2409 1742 
Q 1991 1309 1228 531 
z
" transform="scale(0.015625)"/>
        <path id="DejaVuSans-18" d="M 691 4666 
L 3169 4666 
L 3169 4134 
L 1269 4134 
L 1269 2991 
Q 1406 3038 1543 3061 
Q 1681 3084 1819 3084 
Q 2600 3084 3056 2656 
Q 3513 2228 3513 1497 
Q 3513 744 3044 326 
Q 2575 -91 1722 -91 
Q 1428 -91 1123 -41 
Q 819 9 494 109 
L 494 744 
Q 775 591 1075 516 
Q 1375 441 1709 441 
Q 2250 441 2565 725 
Q 2881 1009 2881 1497 
Q 2881 1984 2565 2268 
Q 2250 2553 1709 2553 
Q 1456 2553 1204 2497 
Q 953 2441 691 2322 
L 691 4666 
z
" transform="scale(0.015625)"/>
       </defs>
       <use xlink:href="#DejaVuSans-13"/>
       <use xlink:href="#DejaVuSans-1b" transform="translate(63.625 0)"/>
       <use xlink:href="#DejaVuSans-10" transform="translate(127.25 0)"/>
       <use xlink:href="#DejaVuSans-15" transform="translate(163.328125 0)"/>
       <use xlink:href="#DejaVuSans-18" transform="translate(226.953125 0)"/>
      </g>
     </g>
    </g>
    <g id="xtick_2">
     <g id="line2d_3">
      <path d="M 192.567628 208.551797 
L 192.567628 24.72 
" clip-path="url(#pa94dd9d62d)" style="fill: none; stroke: #b0b0b0; stroke-opacity: 0.25; stroke-width: 0.6; stroke-linecap: square"/>
     </g>
     <g id="line2d_4">
      <g>
       <use xlink:href="#m143ee4494b" x="192.567628" y="208.551797" style="stroke: #000000; stroke-width: 0.8"/>
      </g>
     </g>
     <g id="text_2">
      <!-- 08-29 -->
      <g transform="translate(171.474848 232.438732) rotate(-30) scale(0.08 -0.08)">
       <defs>
        <path id="DejaVuSans-1c" d="M 703 97 
L 703 672 
Q 941 559 1184 500 
Q 1428 441 1663 441 
Q 2288 441 2617 861 
Q 2947 1281 2994 2138 
Q 2813 1869 2534 1725 
Q 2256 1581 1919 1581 
Q 1219 1581 811 2004 
Q 403 2428 403 3163 
Q 403 3881 828 4315 
Q 1253 4750 1959 4750 
Q 2769 4750 3195 4129 
Q 3622 3509 3622 2328 
Q 3622 1225 3098 567 
Q 2575 -91 1691 -91 
Q 1453 -91 1209 -44 
Q 966 3 703 97 
z
M 1959 2075 
Q 2384 2075 2632 2365 
Q 2881 2656 2881 3163 
Q 2881 3666 2632 3958 
Q 2384 4250 1959 4250 
Q 1534 4250 1286 3958 
Q 1038 3666 1038 3163 
Q 1038 2656 1286 2365 
Q 1534 2075 1959 2075 
z
" transform="scale(0.015625)"/>
       </defs>
       <use xlink:href="#DejaVuSans-13"/>
       <use xlink:href="#DejaVuSans-1b" transform="translate(63.625 0)"/>
       <use xlink:href="#DejaVuSans-10" transform="translate(127.25 0)"/>
       <use xlink:href="#DejaVuSans-15" transform="translate(163.328125 0)"/>
       <use xlink:href="#DejaVuSans-1c" transform="translate(226.953125 0)"/>
      </g>
     </g>
    </g>
    <g id="xtick_3">
     <g id="line2d_5">
      <path d="M 252.999526 208.551797 
L 252.999526 24.72 
" clip-path="url(#pa94dd9d62d)" style="fill: none; stroke: #b0b0b0; stroke-opacity: 0.25; stroke-width: 0.6; stroke-linecap: square"/>
     </g>
     <g id="line2d_6">
      <g>
       <use xlink:href="#m143ee4494b" x="252.999526" y="208.551797" style="stroke: #000000; stroke-width: 0.8"/>
      </g>
     </g>
     <g id="text_3">
      <!-- 09-01 -->
      <g transform="translate(231.906745 232.438732) rotate(-30) scale(0.08 -0.08)">
       <defs>
        <path id="DejaVuSans-14" d="M 794 531 
L 1825 531 
L 1825 4091 
L 703 3866 
L 703 4441 
L 1819 4666 
L 2450 4666 
L 2450 531 
L 3481 531 
L 3481 0 
L 794 0 
L 794 531 
z
" transform="scale(0.015625)"/>
       </defs>
       <use xlink:href="#DejaVuSans-13"/>
       <use xlink:href="#DejaVuSans-1c" transform="translate(63.625 0)"/>
       <use xlink:href="#DejaVuSans-10" transform="translate(127.25 0)"/>
       <use xlink:href="#DejaVuSans-13" transform="translate(163.328125 0)"/>
       <use xlink:href="#DejaVuSans-14" transform="translate(226.953125 0)"/>
      </g>
     </g>
    </g>
    <g id="xtick_4">
     <g id="line2d_7">
      <path d="M 333.575389 208.551797 
L 333.575389 24.72 
" clip-path="url(#pa94dd9d62d)" style="fill: none; stroke: #b0b0b0; stroke-opacity: 0.25; stroke-width: 0.6; stroke-linecap: square"/>
     </g>
     <g id="line2d_8">
      <g>
       <use xlink:href="#m143ee4494b" x="333.575389" y="208.551797" style="stroke: #000000; stroke-width: 0.8"/>
      </g>
     </g>
     <g id="text_4">
      <!-- 09-05 -->
      <g transform="translate(312.482608 232.438732) rotate(-30) scale(0.08 -0.08)">
       <use xlink:href="#DejaVuSans-13"/>
       <use xlink:href="#DejaVuSans-1c" transform="translate(63.625 0)"/>
       <use xlink:href="#DejaVuSans-10" transform="translate(127.25 0)"/>
       <use xlink:href="#DejaVuSans-13" transform="translate(163.328125 0)"/>
       <use xlink:href="#DejaVuSans-18" transform="translate(226.953125 0)"/>
      </g>
     </g>
    </g>
    <g id="xtick_5">
     <g id="line2d_9">
      <path d="M 414.151252 208.551797 
L 414.151252 24.72 
" clip-path="url(#pa94dd9d62d)" style="fill: none; stroke: #b0b0b0; stroke-opacity: 0.25; stroke-width: 0.6; stroke-linecap: square"/>
     </g>
     <g id="line2d_10">
      <g>
       <use xlink:href="#m143ee4494b" x="414.151252" y="208.551797" style="stroke: #000000; stroke-width: 0.8"/>
      </g>
     </g>
     <g id="text_5">
      <!-- 09-09 -->
      <g transform="translate(393.058472 232.438732) rotate(-30) scale(0.08 -0.08)">
       <use xlink:href="#DejaVuSans-13"/>
       <use xlink:href="#DejaVuSans-1c" transform="translate(63.625 0)"/>
       <use xlink:href="#DejaVuSans-10" transform="translate(127.25 0)"/>
       <use xlink:href="#DejaVuSans-13" transform="translate(163.328125 0)"/>
       <use xlink:href="#DejaVuSans-1c" transform="translate(226.953125 0)"/>
      </g>
     </g>
    </g>
    <g id="xtick_6">
     <g id="line2d_11">
      <path d="M 494.727115 208.551797 
L 494.727115 24.72 
" clip-path="url(#pa94dd9d62d)" style="fill: none; stroke: #b0b0b0; stroke-opacity: 0.25; stroke-width: 0.6; stroke-linecap: square"/>
     </g>
     <g id="line2d_12">
      <g>
       <use xlink:href="#m143ee4494b" x="494.727115" y="208.551797" style="stroke: #000000; stroke-width: 0.8"/>
      </g>
     </g>
     <g id="text_6">
      <!-- 09-13 -->
      <g transform="translate(473.634335 232.438732) rotate(-30) scale(0.08 -0.08)">
       <defs>
        <path id="DejaVuSans-16" d="M 2597 2516 
Q 3050 2419 3304 2112 
Q 3559 1806 3559 1356 
Q 3559 666 3084 287 
Q 2609 -91 1734 -91 
Q 1441 -91 1130 -33 
Q 819 25 488 141 
L 488 750 
Q 750 597 1062 519 
Q 1375 441 1716 441 
Q 2309 441 2620 675 
Q 2931 909 2931 1356 
Q 2931 1769 2642 2001 
Q 2353 2234 1838 2234 
L 1294 2234 
L 1294 2753 
L 1863 2753 
Q 2328 2753 2575 2939 
Q 2822 3125 2822 3475 
Q 2822 3834 2567 4026 
Q 2313 4219 1838 4219 
Q 1578 4219 1281 4162 
Q 984 4106 628 3988 
L 628 4550 
Q 988 4650 1302 4700 
Q 1616 4750 1894 4750 
Q 2613 4750 3031 4423 
Q 3450 4097 3450 3541 
Q 3450 3153 3228 2886 
Q 3006 2619 2597 2516 
z
" transform="scale(0.015625)"/>
       </defs>
       <use xlink:href="#DejaVuSans-13"/>
       <use xlink:href="#DejaVuSans-1c" transform="translate(63.625 0)"/>
       <use xlink:href="#DejaVuSans-10" transform="translate(127.25 0)"/>
       <use xlink:href="#DejaVuSans-14" transform="translate(163.328125 0)"/>
       <use xlink:href="#DejaVuSans-16" transform="translate(226.953125 0)"/>
      </g>
     </g>
    </g>
    <g id="xtick_7">
     <g id="line2d_13">
      <path d="M 575.302979 208.551797 
L 575.302979 24.72 
" clip-path="url(#pa94dd9d62d)" style="fill: none; stroke: #b0b0b0; stroke-opacity: 0.25; stroke-width: 0.6; stroke-linecap: square"/>
     </g>
     <g id="line2d_14">
      <g>
       <use xlink:href="#m143ee4494b" x="575.302979" y="208.551797" style="stroke: #000000; stroke-width: 0.8"/>
      </g>
     </g>
     <g id="text_7">
      <!-- 09-17 -->
      <g transform="translate(554.210198 232.438732) rotate(-30) scale(0.08 -0.08)">
       <defs>
        <path id="DejaVuSans-1a" d="M 525 4666 
L 3525 4666 
L 3525 4397 
L 1831 0 
L 1172 0 
L 2766 4134 
L 525 4134 
L 525 4666 
z
" transform="scale(0.015625)"/>
       </defs>
       <use xlink:href="#DejaVuSans-13"/>
       <use xlink:href="#DejaVuSans-1c" transform="translate(63.625 0)"/>
       <use xlink:href="#DejaVuSans-10" transform="translate(127.25 0)"/>
       <use xlink:href="#DejaVuSans-14" transform="translate(163.328125 0)"/>
       <use xlink:href="#DejaVuSans-1a" transform="translate(226.953125 0)"/>
      </g>
     </g>
    </g>
   </g>
   <g id="matplotlib.axis_2">
    <g id="ytick_1">
     <g id="line2d_15">
      <path d="M 45.92 207.307288 
L 637.2 207.307288 
" clip-path="url(#pa94dd9d62d)" style="fill: none; stroke: #b0b0b0; stroke-opacity: 0.25; stroke-width: 0.6; stroke-linecap: square"/>
     </g>
     <g id="line2d_16">
      <defs>
       <path id="mb25d66ac5e" d="M 0 0 
L -3.5 0 
" style="stroke: #000000; stroke-width: 0.8"/>
      </defs>
      <g>
       <use xlink:href="#mb25d66ac5e" x="45.92" y="207.307288" style="stroke: #000000; stroke-width: 0.8"/>
      </g>
     </g>
     <g id="text_8">
      <!-- 0 -->
      <g transform="translate(33.83 210.34635) scale(0.08 -0.08)">
       <use xlink:href="#DejaVuSans-13"/>
      </g>
     </g>
    </g>
    <g id="ytick_2">
     <g id="line2d_17">
      <path d="M 45.92 171.74988 
L 637.2 171.74988 
" clip-path="url(#pa94dd9d62d)" style="fill: none; stroke: #b0b0b0; stroke-opacity: 0.25; stroke-width: 0.6; stroke-linecap: square"/>
     </g>
     <g id="line2d_18">
      <g>
       <use xlink:href="#mb25d66ac5e" x="45.92" y="171.74988" style="stroke: #000000; stroke-width: 0.8"/>
      </g>
     </g>
     <g id="text_9">
      <!-- 20 -->
      <g transform="translate(28.74 174.788943) scale(0.08 -0.08)">
       <use xlink:href="#DejaVuSans-15"/>
       <use xlink:href="#DejaVuSans-13" transform="translate(63.625 0)"/>
      </g>
     </g>
    </g>
    <g id="ytick_3">
     <g id="line2d_19">
      <path d="M 45.92 136.192473 
L 637.2 136.192473 
" clip-path="url(#pa94dd9d62d)" style="fill: none; stroke: #b0b0b0; stroke-opacity: 0.25; stroke-width: 0.6; stroke-linecap: square"/>
     </g>
     <g id="line2d_20">
      <g>
       <use xlink:href="#mb25d66ac5e" x="45.92" y="136.192473" style="stroke: #000000; stroke-width: 0.8"/>
      </g>
     </g>
     <g id="text_10">
      <!-- 40 -->
      <g transform="translate(28.74 139.231535) scale(0.08 -0.08)">
       <defs>
        <path id="DejaVuSans-17" d="M 2419 4116 
L 825 1625 
L 2419 1625 
L 2419 4116 
z
M 2253 4666 
L 3047 4666 
L 3047 1625 
L 3713 1625 
L 3713 1100 
L 3047 1100 
L 3047 0 
L 2419 0 
L 2419 1100 
L 313 1100 
L 313 1709 
L 2253 4666 
z
" transform="scale(0.015625)"/>
       </defs>
       <use xlink:href="#DejaVuSans-17"/>
       <use xlink:href="#DejaVuSans-13" transform="translate(63.625 0)"/>
      </g>
     </g>
    </g>
    <g id="ytick_4">
     <g id="line2d_21">
      <path d="M 45.92 100.635065 
L 637.2 100.635065 
" clip-path="url(#pa94dd9d62d)" style="fill: none; stroke: #b0b0b0; stroke-opacity: 0.25; stroke-width: 0.6; stroke-linecap: square"/>
     </g>
     <g id="line2d_22">
      <g>
       <use xlink:href="#mb25d66ac5e" x="45.92" y="100.635065" style="stroke: #000000; stroke-width: 0.8"/>
      </g>
     </g>
     <g id="text_11">
      <!-- 60 -->
      <g transform="translate(28.74 103.674128) scale(0.08 -0.08)">
       <defs>
        <path id="DejaVuSans-19" d="M 2113 2584 
Q 1688 2584 1439 2293 
Q 1191 2003 1191 1497 
Q 1191 994 1439 701 
Q 1688 409 2113 409 
Q 2538 409 2786 701 
Q 3034 994 3034 1497 
Q 3034 2003 2786 2293 
Q 2538 2584 2113 2584 
z
M 3366 4563 
L 3366 3988 
Q 3128 4100 2886 4159 
Q 2644 4219 2406 4219 
Q 1781 4219 1451 3797 
Q 1122 3375 1075 2522 
Q 1259 2794 1537 2939 
Q 1816 3084 2150 3084 
Q 2853 3084 3261 2657 
Q 3669 2231 3669 1497 
Q 3669 778 3244 343 
Q 2819 -91 2113 -91 
Q 1303 -91 875 529 
Q 447 1150 447 2328 
Q 447 3434 972 4092 
Q 1497 4750 2381 4750 
Q 2619 4750 2861 4703 
Q 3103 4656 3366 4563 
z
" transform="scale(0.015625)"/>
       </defs>
       <use xlink:href="#DejaVuSans-19"/>
       <use xlink:href="#DejaVuSans-13" transform="translate(63.625 0)"/>
      </g>
     </g>
    </g>
    <g id="ytick_5">
     <g id="line2d_23">
      <path d="M 45.92 65.077658 
L 637.2 65.077658 
" clip-path="url(#pa94dd9d62d)" style="fill: none; stroke: #b0b0b0; stroke-opacity: 0.25; stroke-width: 0.6; stroke-linecap: square"/>
     </g>
     <g id="line2d_24">
      <g>
       <use xlink:href="#mb25d66ac5e" x="45.92" y="65.077658" style="stroke: #000000; stroke-width: 0.8"/>
      </g>
     </g>
     <g id="text_12">
      <!-- 80 -->
      <g transform="translate(28.74 68.11672) scale(0.08 -0.08)">
       <use xlink:href="#DejaVuSans-1b"/>
       <use xlink:href="#DejaVuSans-13" transform="translate(63.625 0)"/>
      </g>
     </g>
    </g>
    <g id="ytick_6">
     <g id="line2d_25">
      <path d="M 45.92 29.52025 
L 637.2 29.52025 
" clip-path="url(#pa94dd9d62d)" style="fill: none; stroke: #b0b0b0; stroke-opacity: 0.25; stroke-width: 0.6; stroke-linecap: square"/>
     </g>
     <g id="line2d_26">
      <g>
       <use xlink:href="#mb25d66ac5e" x="45.92" y="29.52025" style="stroke: #000000; stroke-width: 0.8"/>
      </g>
     </g>
     <g id="text_13">
      <!-- 100 -->
      <g transform="translate(23.65 32.559313) scale(0.08 -0.08)">
       <use xlink:href="#DejaVuSans-14"/>
       <use xlink:href="#DejaVuSans-13" transform="translate(63.625 0)"/>
       <use xlink:href="#DejaVuSans-13" transform="translate(127.25 0)"/>
      </g>
     </g>
    </g>
    <g id="text_14">
     <!-- count -->
     <g transform="translate(17.487891 129.331523) rotate(-90) scale(0.09 -0.09)">
      <defs>
       <path id="DejaVuSans-46" d="M 3122 3366 
L 3122 2828 
Q 2878 2963 2633 3030 
Q 2388 3097 2138 3097 
Q 1578 3097 1268 2742 
Q 959 2388 959 1747 
Q 959 1106 1268 751 
Q 1578 397 2138 397 
Q 2388 397 2633 464 
Q 2878 531 3122 666 
L 3122 134 
Q 2881 22 2623 -34 
Q 2366 -91 2075 -91 
Q 1284 -91 818 406 
Q 353 903 353 1747 
Q 353 2603 823 3093 
Q 1294 3584 2113 3584 
Q 2378 3584 2631 3529 
Q 2884 3475 3122 3366 
z
" transform="scale(0.015625)"/>
       <path id="DejaVuSans-52" d="M 1959 3097 
Q 1497 3097 1228 2736 
Q 959 2375 959 1747 
Q 959 1119 1226 758 
Q 1494 397 1959 397 
Q 2419 397 2687 759 
Q 2956 1122 2956 1747 
Q 2956 2369 2687 2733 
Q 2419 3097 1959 3097 
z
M 1959 3584 
Q 2709 3584 3137 3096 
Q 3566 2609 3566 1747 
Q 3566 888 3137 398 
Q 2709 -91 1959 -91 
Q 1206 -91 779 398 
Q 353 888 353 1747 
Q 353 2609 779 3096 
Q 1206 3584 1959 3584 
z
" transform="scale(0.015625)"/>
       <path id="DejaVuSans-58" d="M 544 1381 
L 544 3500 
L 1119 3500 
L 1119 1403 
Q 1119 906 1312 657 
Q 1506 409 1894 409 
Q 2359 409 2629 706 
Q 2900 1003 2900 1516 
L 2900 3500 
L 3475 3500 
L 3475 0 
L 2900 0 
L 2900 538 
Q 2691 219 2414 64 
Q 2138 -91 1772 -91 
Q 1169 -91 856 284 
Q 544 659 544 1381 
z
M 1991 3584 
L 1991 3584 
z
" transform="scale(0.015625)"/>
       <path id="DejaVuSans-51" d="M 3513 2113 
L 3513 0 
L 2938 0 
L 2938 2094 
Q 2938 2591 2744 2837 
Q 2550 3084 2163 3084 
Q 1697 3084 1428 2787 
Q 1159 2491 1159 1978 
L 1159 0 
L 581 0 
L 581 3500 
L 1159 3500 
L 1159 2956 
Q 1366 3272 1645 3428 
Q 1925 3584 2291 3584 
Q 2894 3584 3203 3211 
Q 3513 2838 3513 2113 
z
" transform="scale(0.015625)"/>
       <path id="DejaVuSans-57" d="M 1172 4494 
L 1172 3500 
L 2356 3500 
L 2356 3053 
L 1172 3053 
L 1172 1153 
Q 1172 725 1289 603 
Q 1406 481 1766 481 
L 2356 481 
L 2356 0 
L 1766 0 
Q 1100 0 847 248 
Q 594 497 594 1153 
L 594 3053 
L 172 3053 
L 172 3500 
L 594 3500 
L 594 4494 
L 1172 4494 
z
" transform="scale(0.015625)"/>
      </defs>
      <use xlink:href="#DejaVuSans-46"/>
      <use xlink:href="#DejaVuSans-52" transform="translate(54.984375 0)"/>
      <use xlink:href="#DejaVuSans-58" transform="translate(116.171875 0)"/>
      <use xlink:href="#DejaVuSans-51" transform="translate(179.546875 0)"/>
      <use xlink:href="#DejaVuSans-57" transform="translate(242.921875 0)"/>
     </g>
    </g>
   </g>
   <g id="line2d_27">
    <path d="M 72.796364 175.305621 
L 72.833434 175.305621 
L 74.472696 177.083491 
L 77.661691 177.083491 
L 79.141713 175.305621 
L 80.718491 178.861362 
L 82.694418 173.52775 
L 87.528504 173.52775 
L 89.085231 169.97201 
L 90.753637 168.194139 
L 93.533457 169.97201 
L 94.738365 171.74988 
L 96.1186 169.97201 
L 98.173564 168.194139 
L 101.032422 168.194139 
L 103.006017 169.97201 
L 104.493267 173.52775 
L 106.098722 173.52775 
L 107.853159 175.305621 
L 109.361625 177.083491 
L 110.976173 177.083491 
L 113.611675 175.305621 
L 114.717029 175.305621 
L 116.152053 173.52775 
L 118.04125 173.52775 
L 119.589817 175.305621 
L 121.133955 168.194139 
L 123.118275 162.860528 
L 124.706244 159.304787 
L 126.248983 161.082658 
L 127.968448 168.194139 
L 129.472484 166.416269 
L 131.138325 168.194139 
L 133.839575 168.194139 
L 135.050311 173.52775 
L 136.317469 175.305621 
L 138.186148 177.083491 
L 139.772485 171.74988 
L 141.284682 171.74988 
L 143.415885 173.52775 
L 145.496263 166.416269 
L 147.330436 177.083491 
L 149.060859 175.305621 
L 152.032327 169.97201 
L 160.639909 173.52775 
L 169.553147 171.74988 
L 177.601175 169.97201 
L 188.211729 168.194139 
L 194.948067 166.416269 
L 201.942732 162.860528 
L 206.652084 164.638399 
L 210.176345 168.194139 
L 213.059684 168.194139 
L 219.744729 161.082658 
L 224.336574 162.860528 
L 227.893476 155.749047 
L 230.518953 159.304787 
L 233.402758 159.304787 
L 240.172203 169.97201 
L 247.663473 162.860528 
L 252.087452 171.74988 
L 257.450083 171.74988 
L 262.874965 164.638399 
L 267.04831 171.74988 
L 270.726915 175.305621 
L 277.117728 175.305621 
L 282.759671 166.416269 
L 287.137719 166.416269 
L 290.873679 171.74988 
L 293.571431 168.194139 
L 297.219494 168.194139 
L 302.853976 177.083491 
L 307.155552 178.861362 
L 311.010417 185.972843 
L 313.56082 178.861362 
L 317.369988 173.52775 
L 323.038743 175.305621 
L 327.243795 173.52775 
L 330.915873 171.74988 
L 333.712713 169.97201 
L 337.455667 171.74988 
L 342.566732 169.97201 
L 346.435586 168.194139 
L 348.998812 166.416269 
L 350.780294 168.194139 
L 353.69231 169.97201 
L 366.759775 169.97201 
L 369.150239 168.194139 
L 370.963196 169.97201 
L 373.862388 169.97201 
L 377.945038 168.194139 
L 384.553844 169.97201 
L 389.613617 171.74988 
L 393.060473 171.74988 
L 398.028386 173.52775 
L 403.619502 171.74988 
L 418.242762 171.74988 
L 423.83994 169.97201 
L 428.200736 173.52775 
L 431.776523 173.52775 
L 434.548883 175.305621 
L 438.381599 173.52775 
L 443.933313 178.861362 
L 448.14979 171.74988 
L 451.874792 168.194139 
L 454.635727 171.74988 
L 458.476837 168.194139 
L 464.105956 166.416269 
L 467.715316 49.076824 
L 468.356706 166.416269 
L 469.937914 59.744046 
L 470.368305 63.299787 
L 471.147718 72.189139 
L 471.278747 70.411269 
L 472.095929 169.97201 
L 472.824749 68.633398 
L 474.889273 169.97201 
L 475.61343 70.411269 
L 478.567645 171.74988 
L 483.746089 171.74988 
L 487.685121 169.97201 
L 490.080947 169.97201 
L 493.363901 72.189139 
L 494.778641 79.300621 
L 498.869918 79.300621 
L 504.802129 75.74488 
L 512.288737 89.967843 
L 515.089541 82.856361 
L 519.130691 73.967009 
L 525.771904 73.967009 
L 531.201682 61.521917 
L 534.341017 52.632565 
L 539.227328 72.189139 
L 544.974886 50.854695 
L 549.369022 50.854695 
L 553.027809 49.076824 
L 555.544639 49.076824 
L 561.6664 56.188306 
L 566.543151 50.854695 
L 570.458635 43.743213 
L 573.124679 33.075991 
L 575.823831 52.632565 
L 581.83368 95.301454 
L 586.691081 50.854695 
L 590.683503 56.188306 
L 593.341154 50.854695 
L 595.811821 66.855528 
L 601.708594 56.188306 
L 606.359658 45.521083 
L 610.323636 49.076824 
L 610.323636 49.076824 
" clip-path="url(#pa94dd9d62d)" style="fill: none; stroke: #1f77b4; stroke-width: 1.1; stroke-linecap: square"/>
    <defs>
     <path id="mcb7694d831" d="M 0 0.75 
C 0.198902 0.75 0.389685 0.670975 0.53033 0.53033 
C 0.670975 0.389685 0.75 0.198902 0.75 0 
C 0.75 -0.198902 0.670975 -0.389685 0.53033 -0.53033 
C 0.389685 -0.670975 0.198902 -0.75 0 -0.75 
C -0.198902 -0.75 -0.389685 -0.670975 -0.53033 -0.53033 
C -0.670975 -0.389685 -0.75 -0.198902 -0.75 0 
C -0.75 0.198902 -0.670975 0.389685 -0.53033 0.53033 
C -0.389685 0.670975 -0.198902 0.75 0 0.75 
z
" style="stroke: #1f77b4"/>
    </defs>
    <g clip-path="url(#pa94dd9d62d)">
     <use xlink:href="#mcb7694d831" x="72.796364" y="175.305621" style="fill: #1f77b4; stroke: #1f77b4"/>
     <use xlink:href="#mcb7694d831" x="72.833434" y="175.305621" style="fill: #1f77b4; stroke: #1f77b4"/>
     <use xlink:href="#mcb7694d831" x="74.472696" y="177.083491" style="fill: #1f77b4; stroke: #1f77b4"/>
     <use xlink:href="#mcb7694d831" x="75.831481" y="177.083491" style="fill: #1f77b4; stroke: #1f77b4"/>
     <use xlink:href="#mcb7694d831" x="77.661691" y="177.083491" style="fill: #1f77b4; stroke: #1f77b4"/>
     <use xlink:href="#mcb7694d831" x="79.141713" y="175.305621" style="fill: #1f77b4; stroke: #1f77b4"/>
     <use xlink:href="#mcb7694d831" x="80.718491" y="178.861362" style="fill: #1f77b4; stroke: #1f77b4"/>
     <use xlink:href="#mcb7694d831" x="82.694418" y="173.52775" style="fill: #1f77b4; stroke: #1f77b4"/>
     <use xlink:href="#mcb7694d831" x="84.064861" y="173.52775" style="fill: #1f77b4; stroke: #1f77b4"/>
     <use xlink:href="#mcb7694d831" x="85.774533" y="173.52775" style="fill: #1f77b4; stroke: #1f77b4"/>
     <use xlink:href="#mcb7694d831" x="87.528504" y="173.52775" style="fill: #1f77b4; stroke: #1f77b4"/>
     <use xlink:href="#mcb7694d831" x="89.085231" y="169.97201" style="fill: #1f77b4; stroke: #1f77b4"/>
     <use xlink:href="#mcb7694d831" x="90.753637" y="168.194139" style="fill: #1f77b4; stroke: #1f77b4"/>
     <use xlink:href="#mcb7694d831" x="93.533457" y="169.97201" style="fill: #1f77b4; stroke: #1f77b4"/>
     <use xlink:href="#mcb7694d831" x="94.738365" y="171.74988" style="fill: #1f77b4; stroke: #1f77b4"/>
     <use xlink:href="#mcb7694d831" x="96.1186" y="169.97201" style="fill: #1f77b4; stroke: #1f77b4"/>
     <use xlink:href="#mcb7694d831" x="98.173564" y="168.194139" style="fill: #1f77b4; stroke: #1f77b4"/>
     <use xlink:href="#mcb7694d831" x="99.509967" y="168.194139" style="fill: #1f77b4; stroke: #1f77b4"/>
     <use xlink:href="#mcb7694d831" x="101.032422" y="168.194139" style="fill: #1f77b4; stroke: #1f77b4"/>
     <use xlink:href="#mcb7694d831" x="103.006017" y="169.97201" style="fill: #1f77b4; stroke: #1f77b4"/>
     <use xlink:href="#mcb7694d831" x="104.493267" y="173.52775" style="fill: #1f77b4; stroke: #1f77b4"/>
     <use xlink:href="#mcb7694d831" x="106.098722" y="173.52775" style="fill: #1f77b4; stroke: #1f77b4"/>
     <use xlink:href="#mcb7694d831" x="107.853159" y="175.305621" style="fill: #1f77b4; stroke: #1f77b4"/>
     <use xlink:href="#mcb7694d831" x="109.361625" y="177.083491" style="fill: #1f77b4; stroke: #1f77b4"/>
     <use xlink:href="#mcb7694d831" x="110.976173" y="177.083491" style="fill: #1f77b4; stroke: #1f77b4"/>
     <use xlink:href="#mcb7694d831" x="113.611675" y="175.305621" style="fill: #1f77b4; stroke: #1f77b4"/>
     <use xlink:href="#mcb7694d831" x="114.717029" y="175.305621" style="fill: #1f77b4; stroke: #1f77b4"/>
     <use xlink:href="#mcb7694d831" x="116.152053" y="173.52775" style="fill: #1f77b4; stroke: #1f77b4"/>
     <use xlink:href="#mcb7694d831" x="118.04125" y="173.52775" style="fill: #1f77b4; stroke: #1f77b4"/>
     <use xlink:href="#mcb7694d831" x="119.589817" y="175.305621" style="fill: #1f77b4; stroke: #1f77b4"/>
     <use xlink:href="#mcb7694d831" x="121.133955" y="168.194139" style="fill: #1f77b4; stroke: #1f77b4"/>
     <use xlink:href="#mcb7694d831" x="123.118275" y="162.860528" style="fill: #1f77b4; stroke: #1f77b4"/>
     <use xlink:href="#mcb7694d831" x="124.706244" y="159.304787" style="fill: #1f77b4; stroke: #1f77b4"/>
     <use xlink:href="#mcb7694d831" x="126.248983" y="161.082658" style="fill: #1f77b4; stroke: #1f77b4"/>
     <use xlink:href="#mcb7694d831" x="127.968448" y="168.194139" style="fill: #1f77b4; stroke: #1f77b4"/>
     <use xlink:href="#mcb7694d831" x="129.472484" y="166.416269" style="fill: #1f77b4; stroke: #1f77b4"/>
     <use xlink:href="#mcb7694d831" x="131.138325" y="168.194139" style="fill: #1f77b4; stroke: #1f77b4"/>
     <use xlink:href="#mcb7694d831" x="133.839575" y="168.194139" style="fill: #1f77b4; stroke: #1f77b4"/>
     <use xlink:href="#mcb7694d831" x="135.050311" y="173.52775" style="fill: #1f77b4; stroke: #1f77b4"/>
     <use xlink:href="#mcb7694d831" x="136.317469" y="175.305621" style="fill: #1f77b4; stroke: #1f77b4"/>
     <use xlink:href="#mcb7694d831" x="138.186148" y="177.083491" style="fill: #1f77b4; stroke: #1f77b4"/>
     <use xlink:href="#mcb7694d831" x="139.772485" y="171.74988" style="fill: #1f77b4; stroke: #1f77b4"/>
     <use xlink:href="#mcb7694d831" x="141.284682" y="171.74988" style="fill: #1f77b4; stroke: #1f77b4"/>
     <use xlink:href="#mcb7694d831" x="143.415885" y="173.52775" style="fill: #1f77b4; stroke: #1f77b4"/>
     <use xlink:href="#mcb7694d831" x="145.496263" y="166.416269" style="fill: #1f77b4; stroke: #1f77b4"/>
     <use xlink:href="#mcb7694d831" x="147.330436" y="177.083491" style="fill: #1f77b4; stroke: #1f77b4"/>
     <use xlink:href="#mcb7694d831" x="149.060859" y="175.305621" style="fill: #1f77b4; stroke: #1f77b4"/>
     <use xlink:href="#mcb7694d831" x="152.032327" y="169.97201" style="fill: #1f77b4; stroke: #1f77b4"/>
     <use xlink:href="#mcb7694d831" x="160.639909" y="173.52775" style="fill: #1f77b4; stroke: #1f77b4"/>
     <use xlink:href="#mcb7694d831" x="169.553147" y="171.74988" style="fill: #1f77b4; stroke: #1f77b4"/>
     <use xlink:href="#mcb7694d831" x="177.601175" y="169.97201" style="fill: #1f77b4; stroke: #1f77b4"/>
     <use xlink:href="#mcb7694d831" x="188.211729" y="168.194139" style="fill: #1f77b4; stroke: #1f77b4"/>
     <use xlink:href="#mcb7694d831" x="194.948067" y="166.416269" style="fill: #1f77b4; stroke: #1f77b4"/>
     <use xlink:href="#mcb7694d831" x="201.942732" y="162.860528" style="fill: #1f77b4; stroke: #1f77b4"/>
     <use xlink:href="#mcb7694d831" x="206.652084" y="164.638399" style="fill: #1f77b4; stroke: #1f77b4"/>
     <use xlink:href="#mcb7694d831" x="210.176345" y="168.194139" style="fill: #1f77b4; stroke: #1f77b4"/>
     <use xlink:href="#mcb7694d831" x="213.059684" y="168.194139" style="fill: #1f77b4; stroke: #1f77b4"/>
     <use xlink:href="#mcb7694d831" x="219.744729" y="161.082658" style="fill: #1f77b4; stroke: #1f77b4"/>
     <use xlink:href="#mcb7694d831" x="224.336574" y="162.860528" style="fill: #1f77b4; stroke: #1f77b4"/>
     <use xlink:href="#mcb7694d831" x="227.893476" y="155.749047" style="fill: #1f77b4; stroke: #1f77b4"/>
     <use xlink:href="#mcb7694d831" x="230.518953" y="159.304787" style="fill: #1f77b4; stroke: #1f77b4"/>
     <use xlink:href="#mcb7694d831" x="233.402758" y="159.304787" style="fill: #1f77b4; stroke: #1f77b4"/>
     <use xlink:href="#mcb7694d831" x="240.172203" y="169.97201" style="fill: #1f77b4; stroke: #1f77b4"/>
     <use xlink:href="#mcb7694d831" x="247.663473" y="162.860528" style="fill: #1f77b4; stroke: #1f77b4"/>
     <use xlink:href="#mcb7694d831" x="252.087452" y="171.74988" style="fill: #1f77b4; stroke: #1f77b4"/>
     <use xlink:href="#mcb7694d831" x="257.450083" y="171.74988" style="fill: #1f77b4; stroke: #1f77b4"/>
     <use xlink:href="#mcb7694d831" x="262.874965" y="164.638399" style="fill: #1f77b4; stroke: #1f77b4"/>
     <use xlink:href="#mcb7694d831" x="267.04831" y="171.74988" style="fill: #1f77b4; stroke: #1f77b4"/>
     <use xlink:href="#mcb7694d831" x="270.726915" y="175.305621" style="fill: #1f77b4; stroke: #1f77b4"/>
     <use xlink:href="#mcb7694d831" x="273.406715" y="175.305621" style="fill: #1f77b4; stroke: #1f77b4"/>
     <use xlink:href="#mcb7694d831" x="277.117728" y="175.305621" style="fill: #1f77b4; stroke: #1f77b4"/>
     <use xlink:href="#mcb7694d831" x="282.759671" y="166.416269" style="fill: #1f77b4; stroke: #1f77b4"/>
     <use xlink:href="#mcb7694d831" x="287.137719" y="166.416269" style="fill: #1f77b4; stroke: #1f77b4"/>
     <use xlink:href="#mcb7694d831" x="290.873679" y="171.74988" style="fill: #1f77b4; stroke: #1f77b4"/>
     <use xlink:href="#mcb7694d831" x="293.571431" y="168.194139" style="fill: #1f77b4; stroke: #1f77b4"/>
     <use xlink:href="#mcb7694d831" x="297.219494" y="168.194139" style="fill: #1f77b4; stroke: #1f77b4"/>
     <use xlink:href="#mcb7694d831" x="302.853976" y="177.083491" style="fill: #1f77b4; stroke: #1f77b4"/>
     <use xlink:href="#mcb7694d831" x="307.155552" y="178.861362" style="fill: #1f77b4; stroke: #1f77b4"/>
     <use xlink:href="#mcb7694d831" x="311.010417" y="185.972843" style="fill: #1f77b4; stroke: #1f77b4"/>
     <use xlink:href="#mcb7694d831" x="313.56082" y="178.861362" style="fill: #1f77b4; stroke: #1f77b4"/>
     <use xlink:href="#mcb7694d831" x="317.369988" y="173.52775" style="fill: #1f77b4; stroke: #1f77b4"/>
     <use xlink:href="#mcb7694d831" x="323.038743" y="175.305621" style="fill: #1f77b4; stroke: #1f77b4"/>
     <use xlink:href="#mcb7694d831" x="327.243795" y="173.52775" style="fill: #1f77b4; stroke: #1f77b4"/>
     <use xlink:href="#mcb7694d831" x="330.915873" y="171.74988" style="fill: #1f77b4; stroke: #1f77b4"/>
     <use xlink:href="#mcb7694d831" x="333.712713" y="169.97201" style="fill: #1f77b4; stroke: #1f77b4"/>
     <use xlink:href="#mcb7694d831" x="337.455667" y="171.74988" style="fill: #1f77b4; stroke: #1f77b4"/>
     <use xlink:href="#mcb7694d831" x="342.566732" y="169.97201" style="fill: #1f77b4; stroke: #1f77b4"/>
     <use xlink:href="#mcb7694d831" x="346.435586" y="168.194139" style="fill: #1f77b4; stroke: #1f77b4"/>
     <use xlink:href="#mcb7694d831" x="348.998812" y="166.416269" style="fill: #1f77b4; stroke: #1f77b4"/>
     <use xlink:href="#mcb7694d831" x="350.780294" y="168.194139" style="fill: #1f77b4; stroke: #1f77b4"/>
     <use xlink:href="#mcb7694d831" x="353.69231" y="169.97201" style="fill: #1f77b4; stroke: #1f77b4"/>
     <use xlink:href="#mcb7694d831" x="357.74978" y="169.97201" style="fill: #1f77b4; stroke: #1f77b4"/>
     <use xlink:href="#mcb7694d831" x="363.017287" y="169.97201" style="fill: #1f77b4; stroke: #1f77b4"/>
     <use xlink:href="#mcb7694d831" x="366.759775" y="169.97201" style="fill: #1f77b4; stroke: #1f77b4"/>
     <use xlink:href="#mcb7694d831" x="369.150239" y="168.194139" style="fill: #1f77b4; stroke: #1f77b4"/>
     <use xlink:href="#mcb7694d831" x="370.963196" y="169.97201" style="fill: #1f77b4; stroke: #1f77b4"/>
     <use xlink:href="#mcb7694d831" x="373.862388" y="169.97201" style="fill: #1f77b4; stroke: #1f77b4"/>
     <use xlink:href="#mcb7694d831" x="377.945038" y="168.194139" style="fill: #1f77b4; stroke: #1f77b4"/>
     <use xlink:href="#mcb7694d831" x="384.553844" y="169.97201" style="fill: #1f77b4; stroke: #1f77b4"/>
     <use xlink:href="#mcb7694d831" x="389.613617" y="171.74988" style="fill: #1f77b4; stroke: #1f77b4"/>
     <use xlink:href="#mcb7694d831" x="393.060473" y="171.74988" style="fill: #1f77b4; stroke: #1f77b4"/>
     <use xlink:href="#mcb7694d831" x="398.028386" y="173.52775" style="fill: #1f77b4; stroke: #1f77b4"/>
     <use xlink:href="#mcb7694d831" x="403.619502" y="171.74988" style="fill: #1f77b4; stroke: #1f77b4"/>
     <use xlink:href="#mcb7694d831" x="408.038118" y="171.74988" style="fill: #1f77b4; stroke: #1f77b4"/>
     <use xlink:href="#mcb7694d831" x="411.834696" y="171.74988" style="fill: #1f77b4; stroke: #1f77b4"/>
     <use xlink:href="#mcb7694d831" x="414.430796" y="171.74988" style="fill: #1f77b4; stroke: #1f77b4"/>
     <use xlink:href="#mcb7694d831" x="418.242762" y="171.74988" style="fill: #1f77b4; stroke: #1f77b4"/>
     <use xlink:href="#mcb7694d831" x="423.83994" y="169.97201" style="fill: #1f77b4; stroke: #1f77b4"/>
     <use xlink:href="#mcb7694d831" x="428.200736" y="173.52775" style="fill: #1f77b4; stroke: #1f77b4"/>
     <use xlink:href="#mcb7694d831" x="431.776523" y="173.52775" style="fill: #1f77b4; stroke: #1f77b4"/>
     <use xlink:href="#mcb7694d831" x="434.548883" y="175.305621" style="fill: #1f77b4; stroke: #1f77b4"/>
     <use xlink:href="#mcb7694d831" x="438.381599" y="173.52775" style="fill: #1f77b4; stroke: #1f77b4"/>
     <use xlink:href="#mcb7694d831" x="443.933313" y="178.861362" style="fill: #1f77b4; stroke: #1f77b4"/>
     <use xlink:href="#mcb7694d831" x="448.14979" y="171.74988" style="fill: #1f77b4; stroke: #1f77b4"/>
     <use xlink:href="#mcb7694d831" x="451.874792" y="168.194139" style="fill: #1f77b4; stroke: #1f77b4"/>
     <use xlink:href="#mcb7694d831" x="454.635727" y="171.74988" style="fill: #1f77b4; stroke: #1f77b4"/>
     <use xlink:href="#mcb7694d831" x="458.476837" y="168.194139" style="fill: #1f77b4; stroke: #1f77b4"/>
     <use xlink:href="#mcb7694d831" x="464.105956" y="166.416269" style="fill: #1f77b4; stroke: #1f77b4"/>
     <use xlink:href="#mcb7694d831" x="467.576827" y="50.854695" style="fill: #1f77b4; stroke: #1f77b4"/>
     <use xlink:href="#mcb7694d831" x="467.715316" y="49.076824" style="fill: #1f77b4; stroke: #1f77b4"/>
     <use xlink:href="#mcb7694d831" x="468.356706" y="166.416269" style="fill: #1f77b4; stroke: #1f77b4"/>
     <use xlink:href="#mcb7694d831" x="469.937914" y="59.744046" style="fill: #1f77b4; stroke: #1f77b4"/>
     <use xlink:href="#mcb7694d831" x="470.368305" y="63.299787" style="fill: #1f77b4; stroke: #1f77b4"/>
     <use xlink:href="#mcb7694d831" x="471.147718" y="72.189139" style="fill: #1f77b4; stroke: #1f77b4"/>
     <use xlink:href="#mcb7694d831" x="471.278747" y="70.411269" style="fill: #1f77b4; stroke: #1f77b4"/>
     <use xlink:href="#mcb7694d831" x="472.095929" y="169.97201" style="fill: #1f77b4; stroke: #1f77b4"/>
     <use xlink:href="#mcb7694d831" x="472.730558" y="70.411269" style="fill: #1f77b4; stroke: #1f77b4"/>
     <use xlink:href="#mcb7694d831" x="472.824749" y="68.633398" style="fill: #1f77b4; stroke: #1f77b4"/>
     <use xlink:href="#mcb7694d831" x="474.889273" y="169.97201" style="fill: #1f77b4; stroke: #1f77b4"/>
     <use xlink:href="#mcb7694d831" x="475.61343" y="70.411269" style="fill: #1f77b4; stroke: #1f77b4"/>
     <use xlink:href="#mcb7694d831" x="478.567645" y="171.74988" style="fill: #1f77b4; stroke: #1f77b4"/>
     <use xlink:href="#mcb7694d831" x="483.746089" y="171.74988" style="fill: #1f77b4; stroke: #1f77b4"/>
     <use xlink:href="#mcb7694d831" x="487.685121" y="169.97201" style="fill: #1f77b4; stroke: #1f77b4"/>
     <use xlink:href="#mcb7694d831" x="490.080947" y="169.97201" style="fill: #1f77b4; stroke: #1f77b4"/>
     <use xlink:href="#mcb7694d831" x="493.363901" y="72.189139" style="fill: #1f77b4; stroke: #1f77b4"/>
     <use xlink:href="#mcb7694d831" x="494.778641" y="79.300621" style="fill: #1f77b4; stroke: #1f77b4"/>
     <use xlink:href="#mcb7694d831" x="498.869918" y="79.300621" style="fill: #1f77b4; stroke: #1f77b4"/>
     <use xlink:href="#mcb7694d831" x="504.802129" y="75.74488" style="fill: #1f77b4; stroke: #1f77b4"/>
     <use xlink:href="#mcb7694d831" x="508.516639" y="82.856361" style="fill: #1f77b4; stroke: #1f77b4"/>
     <use xlink:href="#mcb7694d831" x="512.288737" y="89.967843" style="fill: #1f77b4; stroke: #1f77b4"/>
     <use xlink:href="#mcb7694d831" x="515.089541" y="82.856361" style="fill: #1f77b4; stroke: #1f77b4"/>
     <use xlink:href="#mcb7694d831" x="519.130691" y="73.967009" style="fill: #1f77b4; stroke: #1f77b4"/>
     <use xlink:href="#mcb7694d831" x="525.771904" y="73.967009" style="fill: #1f77b4; stroke: #1f77b4"/>
     <use xlink:href="#mcb7694d831" x="531.201682" y="61.521917" style="fill: #1f77b4; stroke: #1f77b4"/>
     <use xlink:href="#mcb7694d831" x="534.341017" y="52.632565" style="fill: #1f77b4; stroke: #1f77b4"/>
     <use xlink:href="#mcb7694d831" x="539.227328" y="72.189139" style="fill: #1f77b4; stroke: #1f77b4"/>
     <use xlink:href="#mcb7694d831" x="544.974886" y="50.854695" style="fill: #1f77b4; stroke: #1f77b4"/>
     <use xlink:href="#mcb7694d831" x="549.369022" y="50.854695" style="fill: #1f77b4; stroke: #1f77b4"/>
     <use xlink:href="#mcb7694d831" x="553.027809" y="49.076824" style="fill: #1f77b4; stroke: #1f77b4"/>
     <use xlink:href="#mcb7694d831" x="555.544639" y="49.076824" style="fill: #1f77b4; stroke: #1f77b4"/>
     <use xlink:href="#mcb7694d831" x="561.6664" y="56.188306" style="fill: #1f77b4; stroke: #1f77b4"/>
     <use xlink:href="#mcb7694d831" x="566.543151" y="50.854695" style="fill: #1f77b4; stroke: #1f77b4"/>
     <use xlink:href="#mcb7694d831" x="570.458635" y="43.743213" style="fill: #1f77b4; stroke: #1f77b4"/>
     <use xlink:href="#mcb7694d831" x="573.124679" y="33.075991" style="fill: #1f77b4; stroke: #1f77b4"/>
     <use xlink:href="#mcb7694d831" x="575.823831" y="52.632565" style="fill: #1f77b4; stroke: #1f77b4"/>
     <use xlink:href="#mcb7694d831" x="581.83368" y="95.301454" style="fill: #1f77b4; stroke: #1f77b4"/>
     <use xlink:href="#mcb7694d831" x="586.691081" y="50.854695" style="fill: #1f77b4; stroke: #1f77b4"/>
     <use xlink:href="#mcb7694d831" x="590.683503" y="56.188306" style="fill: #1f77b4; stroke: #1f77b4"/>
     <use xlink:href="#mcb7694d831" x="593.341154" y="50.854695" style="fill: #1f77b4; stroke: #1f77b4"/>
     <use xlink:href="#mcb7694d831" x="595.811821" y="66.855528" style="fill: #1f77b4; stroke: #1f77b4"/>
     <use xlink:href="#mcb7694d831" x="601.708594" y="56.188306" style="fill: #1f77b4; stroke: #1f77b4"/>
     <use xlink:href="#mcb7694d831" x="606.359658" y="45.521083" style="fill: #1f77b4; stroke: #1f77b4"/>
     <use xlink:href="#mcb7694d831" x="610.323636" y="49.076824" style="fill: #1f77b4; stroke: #1f77b4"/>
    </g>
   </g>
   <g id="line2d_28">
    <path d="M 72.796364 194.862195 
L 72.833434 194.862195 
L 74.472696 193.084325 
L 77.661691 193.084325 
L 79.141713 196.640065 
L 80.718491 196.640065 
L 82.694418 194.862195 
L 84.064861 193.084325 
L 96.1186 193.084325 
L 98.173564 191.306454 
L 99.509967 193.084325 
L 101.032422 191.306454 
L 103.006017 191.306454 
L 104.493267 194.862195 
L 118.04125 194.862195 
L 119.589817 196.640065 
L 121.133955 191.306454 
L 123.118275 189.528584 
L 126.248983 185.972843 
L 127.968448 189.528584 
L 131.138325 189.528584 
L 133.839575 193.084325 
L 141.284682 193.084325 
L 143.415885 194.862195 
L 145.496263 194.862195 
L 147.330436 198.417936 
L 149.060859 198.417936 
L 152.032327 196.640065 
L 169.553147 193.084325 
L 177.601175 193.084325 
L 188.211729 194.862195 
L 201.942732 191.306454 
L 206.652084 189.528584 
L 210.176345 187.750713 
L 213.059684 189.528584 
L 219.744729 191.306454 
L 224.336574 191.306454 
L 227.893476 189.528584 
L 230.518953 193.084325 
L 240.172203 193.084325 
L 247.663473 191.306454 
L 252.087452 194.862195 
L 262.874965 191.306454 
L 267.04831 194.862195 
L 277.117728 194.862195 
L 282.759671 193.084325 
L 287.137719 191.306454 
L 290.873679 194.862195 
L 293.571431 193.084325 
L 297.219494 193.084325 
L 302.853976 191.306454 
L 307.155552 194.862195 
L 311.010417 200.195806 
L 313.56082 196.640065 
L 317.369988 194.862195 
L 327.243795 194.862195 
L 330.915873 191.306454 
L 333.712713 191.306454 
L 337.455667 189.528584 
L 342.566732 189.528584 
L 346.435586 185.972843 
L 353.69231 185.972843 
L 357.74978 187.750713 
L 363.017287 189.528584 
L 370.963196 189.528584 
L 373.862388 191.306454 
L 377.945038 194.862195 
L 384.553844 193.084325 
L 418.242762 193.084325 
L 423.83994 191.306454 
L 428.200736 193.084325 
L 431.776523 194.862195 
L 434.548883 193.084325 
L 438.381599 191.306454 
L 443.933313 196.640065 
L 448.14979 191.306454 
L 454.635727 191.306454 
L 458.476837 187.750713 
L 464.105956 187.750713 
L 467.576827 113.080158 
L 467.715316 113.080158 
L 468.356706 185.972843 
L 469.937914 118.413769 
L 470.368305 121.96951 
L 471.147718 125.52525 
L 471.278747 125.52525 
L 472.095929 191.306454 
L 472.824749 129.080991 
L 474.889273 191.306454 
L 475.61343 129.080991 
L 478.567645 193.084325 
L 483.746089 193.084325 
L 487.685121 191.306454 
L 490.080947 191.306454 
L 493.363901 132.636732 
L 494.778641 132.636732 
L 498.869918 129.080991 
L 504.802129 127.303121 
L 512.288737 141.526084 
L 515.089541 125.52525 
L 519.130691 129.080991 
L 525.771904 132.636732 
L 531.201682 113.080158 
L 534.341017 116.635898 
L 539.227328 125.52525 
L 544.974886 118.413769 
L 549.369022 118.413769 
L 553.027809 116.635898 
L 555.544639 116.635898 
L 561.6664 118.413769 
L 566.543151 111.302287 
L 570.458635 109.524417 
L 573.124679 107.746547 
L 575.823831 120.191639 
L 581.83368 132.636732 
L 586.691081 114.858028 
L 590.683503 113.080158 
L 593.341154 114.858028 
L 595.811821 118.413769 
L 601.708594 111.302287 
L 606.359658 109.524417 
L 610.323636 113.080158 
L 610.323636 113.080158 
" clip-path="url(#pa94dd9d62d)" style="fill: none; stroke: #ff7f0e; stroke-width: 1.1; stroke-linecap: square"/>
    <defs>
     <path id="mc4ceead6ac" d="M 0 0.75 
C 0.198902 0.75 0.389685 0.670975 0.53033 0.53033 
C 0.670975 0.389685 0.75 0.198902 0.75 0 
C 0.75 -0.198902 0.670975 -0.389685 0.53033 -0.53033 
C 0.389685 -0.670975 0.198902 -0.75 0 -0.75 
C -0.198902 -0.75 -0.389685 -0.670975 -0.53033 -0.53033 
C -0.670975 -0.389685 -0.75 -0.198902 -0.75 0 
C -0.75 0.198902 -0.670975 0.389685 -0.53033 0.53033 
C -0.389685 0.670975 -0.198902 0.75 0 0.75 
z
" style="stroke: #ff7f0e"/>
    </defs>
    <g clip-path="url(#pa94dd9d62d)">
     <use xlink:href="#mc4ceead6ac" x="72.796364" y="194.862195" style="fill: #ff7f0e; stroke: #ff7f0e"/>
     <use xlink:href="#mc4ceead6ac" x="72.833434" y="194.862195" style="fill: #ff7f0e; stroke: #ff7f0e"/>
     <use xlink:href="#mc4ceead6ac" x="74.472696" y="193.084325" style="fill: #ff7f0e; stroke: #ff7f0e"/>
     <use xlink:href="#mc4ceead6ac" x="75.831481" y="193.084325" style="fill: #ff7f0e; stroke: #ff7f0e"/>
     <use xlink:href="#mc4ceead6ac" x="77.661691" y="193.084325" style="fill: #ff7f0e; stroke: #ff7f0e"/>
     <use xlink:href="#mc4ceead6ac" x="79.141713" y="196.640065" style="fill: #ff7f0e; stroke: #ff7f0e"/>
     <use xlink:href="#mc4ceead6ac" x="80.718491" y="196.640065" style="fill: #ff7f0e; stroke: #ff7f0e"/>
     <use xlink:href="#mc4ceead6ac" x="82.694418" y="194.862195" style="fill: #ff7f0e; stroke: #ff7f0e"/>
     <use xlink:href="#mc4ceead6ac" x="84.064861" y="193.084325" style="fill: #ff7f0e; stroke: #ff7f0e"/>
     <use xlink:href="#mc4ceead6ac" x="85.774533" y="193.084325" style="fill: #ff7f0e; stroke: #ff7f0e"/>
     <use xlink:href="#mc4ceead6ac" x="87.528504" y="193.084325" style="fill: #ff7f0e; stroke: #ff7f0e"/>
     <use xlink:href="#mc4ceead6ac" x="89.085231" y="193.084325" style="fill: #ff7f0e; stroke: #ff7f0e"/>
     <use xlink:href="#mc4ceead6ac" x="90.753637" y="193.084325" style="fill: #ff7f0e; stroke: #ff7f0e"/>
     <use xlink:href="#mc4ceead6ac" x="93.533457" y="193.084325" style="fill: #ff7f0e; stroke: #ff7f0e"/>
     <use xlink:href="#mc4ceead6ac" x="94.738365" y="193.084325" style="fill: #ff7f0e; stroke: #ff7f0e"/>
     <use xlink:href="#mc4ceead6ac" x="96.1186" y="193.084325" style="fill: #ff7f0e; stroke: #ff7f0e"/>
     <use xlink:href="#mc4ceead6ac" x="98.173564" y="191.306454" style="fill: #ff7f0e; stroke: #ff7f0e"/>
     <use xlink:href="#mc4ceead6ac" x="99.509967" y="193.084325" style="fill: #ff7f0e; stroke: #ff7f0e"/>
     <use xlink:href="#mc4ceead6ac" x="101.032422" y="191.306454" style="fill: #ff7f0e; stroke: #ff7f0e"/>
     <use xlink:href="#mc4ceead6ac" x="103.006017" y="191.306454" style="fill: #ff7f0e; stroke: #ff7f0e"/>
     <use xlink:href="#mc4ceead6ac" x="104.493267" y="194.862195" style="fill: #ff7f0e; stroke: #ff7f0e"/>
     <use xlink:href="#mc4ceead6ac" x="106.098722" y="194.862195" style="fill: #ff7f0e; stroke: #ff7f0e"/>
     <use xlink:href="#mc4ceead6ac" x="107.853159" y="194.862195" style="fill: #ff7f0e; stroke: #ff7f0e"/>
     <use xlink:href="#mc4ceead6ac" x="109.361625" y="194.862195" style="fill: #ff7f0e; stroke: #ff7f0e"/>
     <use xlink:href="#mc4ceead6ac" x="110.976173" y="194.862195" style="fill: #ff7f0e; stroke: #ff7f0e"/>
     <use xlink:href="#mc4ceead6ac" x="113.611675" y="194.862195" style="fill: #ff7f0e; stroke: #ff7f0e"/>
     <use xlink:href="#mc4ceead6ac" x="114.717029" y="194.862195" style="fill: #ff7f0e; stroke: #ff7f0e"/>
     <use xlink:href="#mc4ceead6ac" x="116.152053" y="194.862195" style="fill: #ff7f0e; stroke: #ff7f0e"/>
     <use xlink:href="#mc4ceead6ac" x="118.04125" y="194.862195" style="fill: #ff7f0e; stroke: #ff7f0e"/>
     <use xlink:href="#mc4ceead6ac" x="119.589817" y="196.640065" style="fill: #ff7f0e; stroke: #ff7f0e"/>
     <use xlink:href="#mc4ceead6ac" x="121.133955" y="191.306454" style="fill: #ff7f0e; stroke: #ff7f0e"/>
     <use xlink:href="#mc4ceead6ac" x="123.118275" y="189.528584" style="fill: #ff7f0e; stroke: #ff7f0e"/>
     <use xlink:href="#mc4ceead6ac" x="124.706244" y="187.750713" style="fill: #ff7f0e; stroke: #ff7f0e"/>
     <use xlink:href="#mc4ceead6ac" x="126.248983" y="185.972843" style="fill: #ff7f0e; stroke: #ff7f0e"/>
     <use xlink:href="#mc4ceead6ac" x="127.968448" y="189.528584" style="fill: #ff7f0e; stroke: #ff7f0e"/>
     <use xlink:href="#mc4ceead6ac" x="129.472484" y="189.528584" style="fill: #ff7f0e; stroke: #ff7f0e"/>
     <use xlink:href="#mc4ceead6ac" x="131.138325" y="189.528584" style="fill: #ff7f0e; stroke: #ff7f0e"/>
     <use xlink:href="#mc4ceead6ac" x="133.839575" y="193.084325" style="fill: #ff7f0e; stroke: #ff7f0e"/>
     <use xlink:href="#mc4ceead6ac" x="135.050311" y="193.084325" style="fill: #ff7f0e; stroke: #ff7f0e"/>
     <use xlink:href="#mc4ceead6ac" x="136.317469" y="193.084325" style="fill: #ff7f0e; stroke: #ff7f0e"/>
     <use xlink:href="#mc4ceead6ac" x="138.186148" y="193.084325" style="fill: #ff7f0e; stroke: #ff7f0e"/>
     <use xlink:href="#mc4ceead6ac" x="139.772485" y="193.084325" style="fill: #ff7f0e; stroke: #ff7f0e"/>
     <use xlink:href="#mc4ceead6ac" x="141.284682" y="193.084325" style="fill: #ff7f0e; stroke: #ff7f0e"/>
     <use xlink:href="#mc4ceead6ac" x="143.415885" y="194.862195" style="fill: #ff7f0e; stroke: #ff7f0e"/>
     <use xlink:href="#mc4ceead6ac" x="145.496263" y="194.862195" style="fill: #ff7f0e; stroke: #ff7f0e"/>
     <use xlink:href="#mc4ceead6ac" x="147.330436" y="198.417936" style="fill: #ff7f0e; stroke: #ff7f0e"/>
     <use xlink:href="#mc4ceead6ac" x="149.060859" y="198.417936" style="fill: #ff7f0e; stroke: #ff7f0e"/>
     <use xlink:href="#mc4ceead6ac" x="152.032327" y="196.640065" style="fill: #ff7f0e; stroke: #ff7f0e"/>
     <use xlink:href="#mc4ceead6ac" x="160.639909" y="194.862195" style="fill: #ff7f0e; stroke: #ff7f0e"/>
     <use xlink:href="#mc4ceead6ac" x="169.553147" y="193.084325" style="fill: #ff7f0e; stroke: #ff7f0e"/>
     <use xlink:href="#mc4ceead6ac" x="177.601175" y="193.084325" style="fill: #ff7f0e; stroke: #ff7f0e"/>
     <use xlink:href="#mc4ceead6ac" x="188.211729" y="194.862195" style="fill: #ff7f0e; stroke: #ff7f0e"/>
     <use xlink:href="#mc4ceead6ac" x="194.948067" y="193.084325" style="fill: #ff7f0e; stroke: #ff7f0e"/>
     <use xlink:href="#mc4ceead6ac" x="201.942732" y="191.306454" style="fill: #ff7f0e; stroke: #ff7f0e"/>
     <use xlink:href="#mc4ceead6ac" x="206.652084" y="189.528584" style="fill: #ff7f0e; stroke: #ff7f0e"/>
     <use xlink:href="#mc4ceead6ac" x="210.176345" y="187.750713" style="fill: #ff7f0e; stroke: #ff7f0e"/>
     <use xlink:href="#mc4ceead6ac" x="213.059684" y="189.528584" style="fill: #ff7f0e; stroke: #ff7f0e"/>
     <use xlink:href="#mc4ceead6ac" x="219.744729" y="191.306454" style="fill: #ff7f0e; stroke: #ff7f0e"/>
     <use xlink:href="#mc4ceead6ac" x="224.336574" y="191.306454" style="fill: #ff7f0e; stroke: #ff7f0e"/>
     <use xlink:href="#mc4ceead6ac" x="227.893476" y="189.528584" style="fill: #ff7f0e; stroke: #ff7f0e"/>
     <use xlink:href="#mc4ceead6ac" x="230.518953" y="193.084325" style="fill: #ff7f0e; stroke: #ff7f0e"/>
     <use xlink:href="#mc4ceead6ac" x="233.402758" y="193.084325" style="fill: #ff7f0e; stroke: #ff7f0e"/>
     <use xlink:href="#mc4ceead6ac" x="240.172203" y="193.084325" style="fill: #ff7f0e; stroke: #ff7f0e"/>
     <use xlink:href="#mc4ceead6ac" x="247.663473" y="191.306454" style="fill: #ff7f0e; stroke: #ff7f0e"/>
     <use xlink:href="#mc4ceead6ac" x="252.087452" y="194.862195" style="fill: #ff7f0e; stroke: #ff7f0e"/>
     <use xlink:href="#mc4ceead6ac" x="257.450083" y="193.084325" style="fill: #ff7f0e; stroke: #ff7f0e"/>
     <use xlink:href="#mc4ceead6ac" x="262.874965" y="191.306454" style="fill: #ff7f0e; stroke: #ff7f0e"/>
     <use xlink:href="#mc4ceead6ac" x="267.04831" y="194.862195" style="fill: #ff7f0e; stroke: #ff7f0e"/>
     <use xlink:href="#mc4ceead6ac" x="270.726915" y="194.862195" style="fill: #ff7f0e; stroke: #ff7f0e"/>
     <use xlink:href="#mc4ceead6ac" x="273.406715" y="194.862195" style="fill: #ff7f0e; stroke: #ff7f0e"/>
     <use xlink:href="#mc4ceead6ac" x="277.117728" y="194.862195" style="fill: #ff7f0e; stroke: #ff7f0e"/>
     <use xlink:href="#mc4ceead6ac" x="282.759671" y="193.084325" style="fill: #ff7f0e; stroke: #ff7f0e"/>
     <use xlink:href="#mc4ceead6ac" x="287.137719" y="191.306454" style="fill: #ff7f0e; stroke: #ff7f0e"/>
     <use xlink:href="#mc4ceead6ac" x="290.873679" y="194.862195" style="fill: #ff7f0e; stroke: #ff7f0e"/>
     <use xlink:href="#mc4ceead6ac" x="293.571431" y="193.084325" style="fill: #ff7f0e; stroke: #ff7f0e"/>
     <use xlink:href="#mc4ceead6ac" x="297.219494" y="193.084325" style="fill: #ff7f0e; stroke: #ff7f0e"/>
     <use xlink:href="#mc4ceead6ac" x="302.853976" y="191.306454" style="fill: #ff7f0e; stroke: #ff7f0e"/>
     <use xlink:href="#mc4ceead6ac" x="307.155552" y="194.862195" style="fill: #ff7f0e; stroke: #ff7f0e"/>
     <use xlink:href="#mc4ceead6ac" x="311.010417" y="200.195806" style="fill: #ff7f0e; stroke: #ff7f0e"/>
     <use xlink:href="#mc4ceead6ac" x="313.56082" y="196.640065" style="fill: #ff7f0e; stroke: #ff7f0e"/>
     <use xlink:href="#mc4ceead6ac" x="317.369988" y="194.862195" style="fill: #ff7f0e; stroke: #ff7f0e"/>
     <use xlink:href="#mc4ceead6ac" x="323.038743" y="194.862195" style="fill: #ff7f0e; stroke: #ff7f0e"/>
     <use xlink:href="#mc4ceead6ac" x="327.243795" y="194.862195" style="fill: #ff7f0e; stroke: #ff7f0e"/>
     <use xlink:href="#mc4ceead6ac" x="330.915873" y="191.306454" style="fill: #ff7f0e; stroke: #ff7f0e"/>
     <use xlink:href="#mc4ceead6ac" x="333.712713" y="191.306454" style="fill: #ff7f0e; stroke: #ff7f0e"/>
     <use xlink:href="#mc4ceead6ac" x="337.455667" y="189.528584" style="fill: #ff7f0e; stroke: #ff7f0e"/>
     <use xlink:href="#mc4ceead6ac" x="342.566732" y="189.528584" style="fill: #ff7f0e; stroke: #ff7f0e"/>
     <use xlink:href="#mc4ceead6ac" x="346.435586" y="185.972843" style="fill: #ff7f0e; stroke: #ff7f0e"/>
     <use xlink:href="#mc4ceead6ac" x="348.998812" y="185.972843" style="fill: #ff7f0e; stroke: #ff7f0e"/>
     <use xlink:href="#mc4ceead6ac" x="350.780294" y="185.972843" style="fill: #ff7f0e; stroke: #ff7f0e"/>
     <use xlink:href="#mc4ceead6ac" x="353.69231" y="185.972843" style="fill: #ff7f0e; stroke: #ff7f0e"/>
     <use xlink:href="#mc4ceead6ac" x="357.74978" y="187.750713" style="fill: #ff7f0e; stroke: #ff7f0e"/>
     <use xlink:href="#mc4ceead6ac" x="363.017287" y="189.528584" style="fill: #ff7f0e; stroke: #ff7f0e"/>
     <use xlink:href="#mc4ceead6ac" x="366.759775" y="189.528584" style="fill: #ff7f0e; stroke: #ff7f0e"/>
     <use xlink:href="#mc4ceead6ac" x="369.150239" y="189.528584" style="fill: #ff7f0e; stroke: #ff7f0e"/>
     <use xlink:href="#mc4ceead6ac" x="370.963196" y="189.528584" style="fill: #ff7f0e; stroke: #ff7f0e"/>
     <use xlink:href="#mc4ceead6ac" x="373.862388" y="191.306454" style="fill: #ff7f0e; stroke: #ff7f0e"/>
     <use xlink:href="#mc4ceead6ac" x="377.945038" y="194.862195" style="fill: #ff7f0e; stroke: #ff7f0e"/>
     <use xlink:href="#mc4ceead6ac" x="384.553844" y="193.084325" style="fill: #ff7f0e; stroke: #ff7f0e"/>
     <use xlink:href="#mc4ceead6ac" x="389.613617" y="193.084325" style="fill: #ff7f0e; stroke: #ff7f0e"/>
     <use xlink:href="#mc4ceead6ac" x="393.060473" y="193.084325" style="fill: #ff7f0e; stroke: #ff7f0e"/>
     <use xlink:href="#mc4ceead6ac" x="398.028386" y="193.084325" style="fill: #ff7f0e; stroke: #ff7f0e"/>
     <use xlink:href="#mc4ceead6ac" x="403.619502" y="193.084325" style="fill: #ff7f0e; stroke: #ff7f0e"/>
     <use xlink:href="#mc4ceead6ac" x="408.038118" y="193.084325" style="fill: #ff7f0e; stroke: #ff7f0e"/>
     <use xlink:href="#mc4ceead6ac" x="411.834696" y="193.084325" style="fill: #ff7f0e; stroke: #ff7f0e"/>
     <use xlink:href="#mc4ceead6ac" x="414.430796" y="193.084325" style="fill: #ff7f0e; stroke: #ff7f0e"/>
     <use xlink:href="#mc4ceead6ac" x="418.242762" y="193.084325" style="fill: #ff7f0e; stroke: #ff7f0e"/>
     <use xlink:href="#mc4ceead6ac" x="423.83994" y="191.306454" style="fill: #ff7f0e; stroke: #ff7f0e"/>
     <use xlink:href="#mc4ceead6ac" x="428.200736" y="193.084325" style="fill: #ff7f0e; stroke: #ff7f0e"/>
     <use xlink:href="#mc4ceead6ac" x="431.776523" y="194.862195" style="fill: #ff7f0e; stroke: #ff7f0e"/>
     <use xlink:href="#mc4ceead6ac" x="434.548883" y="193.084325" style="fill: #ff7f0e; stroke: #ff7f0e"/>
     <use xlink:href="#mc4ceead6ac" x="438.381599" y="191.306454" style="fill: #ff7f0e; stroke: #ff7f0e"/>
     <use xlink:href="#mc4ceead6ac" x="443.933313" y="196.640065" style="fill: #ff7f0e; stroke: #ff7f0e"/>
     <use xlink:href="#mc4ceead6ac" x="448.14979" y="191.306454" style="fill: #ff7f0e; stroke: #ff7f0e"/>
     <use xlink:href="#mc4ceead6ac" x="451.874792" y="191.306454" style="fill: #ff7f0e; stroke: #ff7f0e"/>
     <use xlink:href="#mc4ceead6ac" x="454.635727" y="191.306454" style="fill: #ff7f0e; stroke: #ff7f0e"/>
     <use xlink:href="#mc4ceead6ac" x="458.476837" y="187.750713" style="fill: #ff7f0e; stroke: #ff7f0e"/>
     <use xlink:href="#mc4ceead6ac" x="464.105956" y="187.750713" style="fill: #ff7f0e; stroke: #ff7f0e"/>
     <use xlink:href="#mc4ceead6ac" x="467.576827" y="113.080158" style="fill: #ff7f0e; stroke: #ff7f0e"/>
     <use xlink:href="#mc4ceead6ac" x="467.715316" y="113.080158" style="fill: #ff7f0e; stroke: #ff7f0e"/>
     <use xlink:href="#mc4ceead6ac" x="468.356706" y="185.972843" style="fill: #ff7f0e; stroke: #ff7f0e"/>
     <use xlink:href="#mc4ceead6ac" x="469.937914" y="118.413769" style="fill: #ff7f0e; stroke: #ff7f0e"/>
     <use xlink:href="#mc4ceead6ac" x="470.368305" y="121.96951" style="fill: #ff7f0e; stroke: #ff7f0e"/>
     <use xlink:href="#mc4ceead6ac" x="471.147718" y="125.52525" style="fill: #ff7f0e; stroke: #ff7f0e"/>
     <use xlink:href="#mc4ceead6ac" x="471.278747" y="125.52525" style="fill: #ff7f0e; stroke: #ff7f0e"/>
     <use xlink:href="#mc4ceead6ac" x="472.095929" y="191.306454" style="fill: #ff7f0e; stroke: #ff7f0e"/>
     <use xlink:href="#mc4ceead6ac" x="472.730558" y="129.080991" style="fill: #ff7f0e; stroke: #ff7f0e"/>
     <use xlink:href="#mc4ceead6ac" x="472.824749" y="129.080991" style="fill: #ff7f0e; stroke: #ff7f0e"/>
     <use xlink:href="#mc4ceead6ac" x="474.889273" y="191.306454" style="fill: #ff7f0e; stroke: #ff7f0e"/>
     <use xlink:href="#mc4ceead6ac" x="475.61343" y="129.080991" style="fill: #ff7f0e; stroke: #ff7f0e"/>
     <use xlink:href="#mc4ceead6ac" x="478.567645" y="193.084325" style="fill: #ff7f0e; stroke: #ff7f0e"/>
     <use xlink:href="#mc4ceead6ac" x="483.746089" y="193.084325" style="fill: #ff7f0e; stroke: #ff7f0e"/>
     <use xlink:href="#mc4ceead6ac" x="487.685121" y="191.306454" style="fill: #ff7f0e; stroke: #ff7f0e"/>
     <use xlink:href="#mc4ceead6ac" x="490.080947" y="191.306454" style="fill: #ff7f0e; stroke: #ff7f0e"/>
     <use xlink:href="#mc4ceead6ac" x="493.363901" y="132.636732" style="fill: #ff7f0e; stroke: #ff7f0e"/>
     <use xlink:href="#mc4ceead6ac" x="494.778641" y="132.636732" style="fill: #ff7f0e; stroke: #ff7f0e"/>
     <use xlink:href="#mc4ceead6ac" x="498.869918" y="129.080991" style="fill: #ff7f0e; stroke: #ff7f0e"/>
     <use xlink:href="#mc4ceead6ac" x="504.802129" y="127.303121" style="fill: #ff7f0e; stroke: #ff7f0e"/>
     <use xlink:href="#mc4ceead6ac" x="508.516639" y="134.414602" style="fill: #ff7f0e; stroke: #ff7f0e"/>
     <use xlink:href="#mc4ceead6ac" x="512.288737" y="141.526084" style="fill: #ff7f0e; stroke: #ff7f0e"/>
     <use xlink:href="#mc4ceead6ac" x="515.089541" y="125.52525" style="fill: #ff7f0e; stroke: #ff7f0e"/>
     <use xlink:href="#mc4ceead6ac" x="519.130691" y="129.080991" style="fill: #ff7f0e; stroke: #ff7f0e"/>
     <use xlink:href="#mc4ceead6ac" x="525.771904" y="132.636732" style="fill: #ff7f0e; stroke: #ff7f0e"/>
     <use xlink:href="#mc4ceead6ac" x="531.201682" y="113.080158" style="fill: #ff7f0e; stroke: #ff7f0e"/>
     <use xlink:href="#mc4ceead6ac" x="534.341017" y="116.635898" style="fill: #ff7f0e; stroke: #ff7f0e"/>
     <use xlink:href="#mc4ceead6ac" x="539.227328" y="125.52525" style="fill: #ff7f0e; stroke: #ff7f0e"/>
     <use xlink:href="#mc4ceead6ac" x="544.974886" y="118.413769" style="fill: #ff7f0e; stroke: #ff7f0e"/>
     <use xlink:href="#mc4ceead6ac" x="549.369022" y="118.413769" style="fill: #ff7f0e; stroke: #ff7f0e"/>
     <use xlink:href="#mc4ceead6ac" x="553.027809" y="116.635898" style="fill: #ff7f0e; stroke: #ff7f0e"/>
     <use xlink:href="#mc4ceead6ac" x="555.544639" y="116.635898" style="fill: #ff7f0e; stroke: #ff7f0e"/>
     <use xlink:href="#mc4ceead6ac" x="561.6664" y="118.413769" style="fill: #ff7f0e; stroke: #ff7f0e"/>
     <use xlink:href="#mc4ceead6ac" x="566.543151" y="111.302287" style="fill: #ff7f0e; stroke: #ff7f0e"/>
     <use xlink:href="#mc4ceead6ac" x="570.458635" y="109.524417" style="fill: #ff7f0e; stroke: #ff7f0e"/>
     <use xlink:href="#mc4ceead6ac" x="573.124679" y="107.746547" style="fill: #ff7f0e; stroke: #ff7f0e"/>
     <use xlink:href="#mc4ceead6ac" x="575.823831" y="120.191639" style="fill: #ff7f0e; stroke: #ff7f0e"/>
     <use xlink:href="#mc4ceead6ac" x="581.83368" y="132.636732" style="fill: #ff7f0e; stroke: #ff7f0e"/>
     <use xlink:href="#mc4ceead6ac" x="586.691081" y="114.858028" style="fill: #ff7f0e; stroke: #ff7f0e"/>
     <use xlink:href="#mc4ceead6ac" x="590.683503" y="113.080158" style="fill: #ff7f0e; stroke: #ff7f0e"/>
     <use xlink:href="#mc4ceead6ac" x="593.341154" y="114.858028" style="fill: #ff7f0e; stroke: #ff7f0e"/>
     <use xlink:href="#mc4ceead6ac" x="595.811821" y="118.413769" style="fill: #ff7f0e; stroke: #ff7f0e"/>
     <use xlink:href="#mc4ceead6ac" x="601.708594" y="111.302287" style="fill: #ff7f0e; stroke: #ff7f0e"/>
     <use xlink:href="#mc4ceead6ac" x="606.359658" y="109.524417" style="fill: #ff7f0e; stroke: #ff7f0e"/>
     <use xlink:href="#mc4ceead6ac" x="610.323636" y="113.080158" style="fill: #ff7f0e; stroke: #ff7f0e"/>
    </g>
   </g>
   <g id="patch_3">
    <path d="M 45.92 208.551797 
L 45.92 24.72 
" style="fill: none; stroke: #000000; stroke-width: 0.8; stroke-linejoin: miter; stroke-linecap: square"/>
   </g>
   <g id="patch_4">
    <path d="M 637.2 208.551797 
L 637.2 24.72 
" style="fill: none; stroke: #000000; stroke-width: 0.8; stroke-linejoin: miter; stroke-linecap: square"/>
   </g>
   <g id="patch_5">
    <path d="M 45.92 208.551797 
L 637.2 208.551797 
" style="fill: none; stroke: #000000; stroke-width: 0.8; stroke-linejoin: miter; stroke-linecap: square"/>
   </g>
   <g id="patch_6">
    <path d="M 45.92 24.72 
L 637.2 24.72 
" style="fill: none; stroke: #000000; stroke-width: 0.8; stroke-linejoin: miter; stroke-linecap: square"/>
   </g>
   <g id="text_15">
    <!-- Bucket-sum candidates per snapshot -->
    <g transform="translate(248.706875 18.72) scale(0.1 -0.1)">
     <defs>
      <path id="DejaVuSans-25" d="M 1259 2228 
L 1259 519 
L 2272 519 
Q 2781 519 3026 730 
Q 3272 941 3272 1375 
Q 3272 1813 3026 2020 
Q 2781 2228 2272 2228 
L 1259 2228 
z
M 1259 4147 
L 1259 2741 
L 2194 2741 
Q 2656 2741 2882 2914 
Q 3109 3088 3109 3444 
Q 3109 3797 2882 3972 
Q 2656 4147 2194 4147 
L 1259 4147 
z
M 628 4666 
L 2241 4666 
Q 2963 4666 3353 4366 
Q 3744 4066 3744 3513 
Q 3744 3084 3544 2831 
Q 3344 2578 2956 2516 
Q 3422 2416 3680 2098 
Q 3938 1781 3938 1306 
Q 3938 681 3513 340 
Q 3088 0 2303 0 
L 628 0 
L 628 4666 
z
" transform="scale(0.015625)"/>
      <path id="DejaVuSans-4e" d="M 581 4863 
L 1159 4863 
L 1159 1991 
L 2875 3500 
L 3609 3500 
L 1753 1863 
L 3688 0 
L 2938 0 
L 1159 1709 
L 1159 0 
L 581 0 
L 581 4863 
z
" transform="scale(0.015625)"/>
      <path id="DejaVuSans-48" d="M 3597 1894 
L 3597 1613 
L 953 1613 
Q 991 1019 1311 708 
Q 1631 397 2203 397 
Q 2534 397 2845 478 
Q 3156 559 3463 722 
L 3463 178 
Q 3153 47 2828 -22 
Q 2503 -91 2169 -91 
Q 1331 -91 842 396 
Q 353 884 353 1716 
Q 353 2575 817 3079 
Q 1281 3584 2069 3584 
Q 2775 3584 3186 3129 
Q 3597 2675 3597 1894 
z
M 3022 2063 
Q 3016 2534 2758 2815 
Q 2500 3097 2075 3097 
Q 1594 3097 1305 2825 
Q 1016 2553 972 2059 
L 3022 2063 
z
" transform="scale(0.015625)"/>
      <path id="DejaVuSans-56" d="M 2834 3397 
L 2834 2853 
Q 2591 2978 2328 3040 
Q 2066 3103 1784 3103 
Q 1356 3103 1142 2972 
Q 928 2841 928 2578 
Q 928 2378 1081 2264 
Q 1234 2150 1697 2047 
L 1894 2003 
Q 2506 1872 2764 1633 
Q 3022 1394 3022 966 
Q 3022 478 2636 193 
Q 2250 -91 1575 -91 
Q 1294 -91 989 -36 
Q 684 19 347 128 
L 347 722 
Q 666 556 975 473 
Q 1284 391 1588 391 
Q 1994 391 2212 530 
Q 2431 669 2431 922 
Q 2431 1156 2273 1281 
Q 2116 1406 1581 1522 
L 1381 1569 
Q 847 1681 609 1914 
Q 372 2147 372 2553 
Q 372 3047 722 3315 
Q 1072 3584 1716 3584 
Q 2034 3584 2315 3537 
Q 2597 3491 2834 3397 
z
" transform="scale(0.015625)"/>
      <path id="DejaVuSans-50" d="M 3328 2828 
Q 3544 3216 3844 3400 
Q 4144 3584 4550 3584 
Q 5097 3584 5394 3201 
Q 5691 2819 5691 2113 
L 5691 0 
L 5113 0 
L 5113 2094 
Q 5113 2597 4934 2840 
Q 4756 3084 4391 3084 
Q 3944 3084 3684 2787 
Q 3425 2491 3425 1978 
L 3425 0 
L 2847 0 
L 2847 2094 
Q 2847 2600 2669 2842 
Q 2491 3084 2119 3084 
Q 1678 3084 1418 2786 
Q 1159 2488 1159 1978 
L 1159 0 
L 581 0 
L 581 3500 
L 1159 3500 
L 1159 2956 
Q 1356 3278 1631 3431 
Q 1906 3584 2284 3584 
Q 2666 3584 2933 3390 
Q 3200 3197 3328 2828 
z
" transform="scale(0.015625)"/>
      <path id="DejaVuSans-3" transform="scale(0.015625)"/>
      <path id="DejaVuSans-44" d="M 2194 1759 
Q 1497 1759 1228 1600 
Q 959 1441 959 1056 
Q 959 750 1161 570 
Q 1363 391 1709 391 
Q 2188 391 2477 730 
Q 2766 1069 2766 1631 
L 2766 1759 
L 2194 1759 
z
M 3341 1997 
L 3341 0 
L 2766 0 
L 2766 531 
Q 2569 213 2275 61 
Q 1981 -91 1556 -91 
Q 1019 -91 701 211 
Q 384 513 384 1019 
Q 384 1609 779 1909 
Q 1175 2209 1959 2209 
L 2766 2209 
L 2766 2266 
Q 2766 2663 2505 2880 
Q 2244 3097 1772 3097 
Q 1472 3097 1187 3025 
Q 903 2953 641 2809 
L 641 3341 
Q 956 3463 1253 3523 
Q 1550 3584 1831 3584 
Q 2591 3584 2966 3190 
Q 3341 2797 3341 1997 
z
" transform="scale(0.015625)"/>
      <path id="DejaVuSans-47" d="M 2906 2969 
L 2906 4863 
L 3481 4863 
L 3481 0 
L 2906 0 
L 2906 525 
Q 2725 213 2448 61 
Q 2172 -91 1784 -91 
Q 1150 -91 751 415 
Q 353 922 353 1747 
Q 353 2572 751 3078 
Q 1150 3584 1784 3584 
Q 2172 3584 2448 3432 
Q 2725 3281 2906 2969 
z
M 947 1747 
Q 947 1113 1208 752 
Q 1469 391 1925 391 
Q 2381 391 2643 752 
Q 2906 1113 2906 1747 
Q 2906 2381 2643 2742 
Q 2381 3103 1925 3103 
Q 1469 3103 1208 2742 
Q 947 2381 947 1747 
z
" transform="scale(0.015625)"/>
      <path id="DejaVuSans-4c" d="M 603 3500 
L 1178 3500 
L 1178 0 
L 603 0 
L 603 3500 
z
M 603 4863 
L 1178 4863 
L 1178 4134 
L 603 4134 
L 603 4863 
z
" transform="scale(0.015625)"/>
      <path id="DejaVuSans-53" d="M 1159 525 
L 1159 -1331 
L 581 -1331 
L 581 3500 
L 1159 3500 
L 1159 2969 
Q 1341 3281 1617 3432 
Q 1894 3584 2278 3584 
Q 2916 3584 3314 3078 
Q 3713 2572 3713 1747 
Q 3713 922 3314 415 
Q 2916 -91 2278 -91 
Q 1894 -91 1617 61 
Q 1341 213 1159 525 
z
M 3116 1747 
Q 3116 2381 2855 2742 
Q 2594 3103 2138 3103 
Q 1681 3103 1420 2742 
Q 1159 2381 1159 1747 
Q 1159 1113 1420 752 
Q 1681 391 2138 391 
Q 2594 391 2855 752 
Q 3116 1113 3116 1747 
z
" transform="scale(0.015625)"/>
      <path id="DejaVuSans-55" d="M 2631 2963 
Q 2534 3019 2420 3045 
Q 2306 3072 2169 3072 
Q 1681 3072 1420 2755 
Q 1159 2438 1159 1844 
L 1159 0 
L 581 0 
L 581 3500 
L 1159 3500 
L 1159 2956 
Q 1341 3275 1631 3429 
Q 1922 3584 2338 3584 
Q 2397 3584 2469 3576 
Q 2541 3569 2628 3553 
L 2631 2963 
z
" transform="scale(0.015625)"/>
      <path id="DejaVuSans-4b" d="M 3513 2113 
L 3513 0 
L 2938 0 
L 2938 2094 
Q 2938 2591 2744 2837 
Q 2550 3084 2163 3084 
Q 1697 3084 1428 2787 
Q 1159 2491 1159 1978 
L 1159 0 
L 581 0 
L 581 4863 
L 1159 4863 
L 1159 2956 
Q 1366 3272 1645 3428 
Q 1925 3584 2291 3584 
Q 2894 3584 3203 3211 
Q 3513 2838 3513 2113 
z
" transform="scale(0.015625)"/>
     </defs>
     <use xlink:href="#DejaVuSans-25"/>
     <use xlink:href="#DejaVuSans-58" transform="translate(68.609375 0)"/>
     <use xlink:href="#DejaVuSans-46" transform="translate(131.984375 0)"/>
     <use xlink:href="#DejaVuSans-4e" transform="translate(186.96875 0)"/>
     <use xlink:href="#DejaVuSans-48" transform="translate(241.3125 0)"/>
     <use xlink:href="#DejaVuSans-57" transform="translate(302.84375 0)"/>
     <use xlink:href="#DejaVuSans-10" transform="translate(342.046875 0)"/>
     <use xlink:href="#DejaVuSans-56" transform="translate(378.125 0)"/>
     <use xlink:href="#DejaVuSans-58" transform="translate(430.21875 0)"/>
     <use xlink:href="#DejaVuSans-50" transform="translate(493.59375 0)"/>
     <use xlink:href="#DejaVuSans-3" transform="translate(591 0)"/>
     <use xlink:href="#DejaVuSans-46" transform="translate(622.78125 0)"/>
     <use xlink:href="#DejaVuSans-44" transform="translate(677.765625 0)"/>
     <use xlink:href="#DejaVuSans-51" transform="translate(739.046875 0)"/>
     <use xlink:href="#DejaVuSans-47" transform="translate(802.421875 0)"/>
     <use xlink:href="#DejaVuSans-4c" transform="translate(865.90625 0)"/>
     <use xlink:href="#DejaVuSans-47" transform="translate(893.6875 0)"/>
     <use xlink:href="#DejaVuSans-44" transform="translate(957.171875 0)"/>
     <use xlink:href="#DejaVuSans-57" transform="translate(1018.453125 0)"/>
     <use xlink:href="#DejaVuSans-48" transform="translate(1057.65625 0)"/>
     <use xlink:href="#DejaVuSans-56" transform="translate(1119.1875 0)"/>
     <use xlink:href="#DejaVuSans-3" transform="translate(1171.28125 0)"/>
     <use xlink:href="#DejaVuSans-53" transform="translate(1203.0625 0)"/>
     <use xlink:href="#DejaVuSans-48" transform="translate(1266.546875 0)"/>
     <use xlink:href="#DejaVuSans-55" transform="translate(1328.078125 0)"/>
     <use xlink:href="#DejaVuSans-3" transform="translate(1369.1875 0)"/>
     <use xlink:href="#DejaVuSans-56" transform="translate(1400.96875 0)"/>
     <use xlink:href="#DejaVuSans-51" transform="translate(1453.0625 0)"/>
     <use xlink:href="#DejaVuSans-44" transform="translate(1516.4375 0)"/>
     <use xlink:href="#DejaVuSans-53" transform="translate(1577.71875 0)"/>
     <use xlink:href="#DejaVuSans-56" transform="translate(1641.203125 0)"/>
     <use xlink:href="#DejaVuSans-4b" transform="translate(1693.296875 0)"/>
     <use xlink:href="#DejaVuSans-52" transform="translate(1756.671875 0)"/>
     <use xlink:href="#DejaVuSans-57" transform="translate(1817.859375 0)"/>
    </g>
   </g>
   <g id="legend_1">
    <g id="line2d_29">
     <path d="M 53.12 35.19875 
L 61.12 35.19875 
L 69.12 35.19875 
" style="fill: none; stroke: #1f77b4; stroke-width: 1.1; stroke-linecap: square"/>
     <g>
      <use xlink:href="#mcb7694d831" x="61.12" y="35.19875" style="fill: #1f77b4; stroke: #1f77b4"/>
     </g>
    </g>
    <g id="text_16">
     <!-- gross -->
     <g transform="translate(75.52 37.99875) scale(0.08 -0.08)">
      <defs>
       <path id="DejaVuSans-4a" d="M 2906 1791 
Q 2906 2416 2648 2759 
Q 2391 3103 1925 3103 
Q 1463 3103 1205 2759 
Q 947 2416 947 1791 
Q 947 1169 1205 825 
Q 1463 481 1925 481 
Q 2391 481 2648 825 
Q 2906 1169 2906 1791 
z
M 3481 434 
Q 3481 -459 3084 -895 
Q 2688 -1331 1869 -1331 
Q 1566 -1331 1297 -1286 
Q 1028 -1241 775 -1147 
L 775 -588 
Q 1028 -725 1275 -790 
Q 1522 -856 1778 -856 
Q 2344 -856 2625 -561 
Q 2906 -266 2906 331 
L 2906 616 
Q 2728 306 2450 153 
Q 2172 0 1784 0 
Q 1141 0 747 490 
Q 353 981 353 1791 
Q 353 2603 747 3093 
Q 1141 3584 1784 3584 
Q 2172 3584 2450 3431 
Q 2728 3278 2906 2969 
L 2906 3500 
L 3481 3500 
L 3481 434 
z
" transform="scale(0.015625)"/>
      </defs>
      <use xlink:href="#DejaVuSans-4a"/>
      <use xlink:href="#DejaVuSans-55" transform="translate(63.484375 0)"/>
      <use xlink:href="#DejaVuSans-52" transform="translate(102.390625 0)"/>
      <use xlink:href="#DejaVuSans-56" transform="translate(163.578125 0)"/>
      <use xlink:href="#DejaVuSans-56" transform="translate(215.671875 0)"/>
     </g>
    </g>
    <g id="line2d_30">
     <path d="M 53.12 47.199375 
L 61.12 47.199375 
L 69.12 47.199375 
" style="fill: none; stroke: #ff7f0e; stroke-width: 1.1; stroke-linecap: square"/>
     <g>
      <use xlink:href="#mc4ceead6ac" x="61.12" y="47.199375" style="fill: #ff7f0e; stroke: #ff7f0e"/>
     </g>
    </g>
    <g id="text_17">
     <!-- net of fee -->
     <g transform="translate(75.52 49.999375) scale(0.08 -0.08)">
      <defs>
       <path id="DejaVuSans-49" d="M 2375 4863 
L 2375 4384 
L 1825 4384 
Q 1516 4384 1395 4259 
Q 1275 4134 1275 3809 
L 1275 3500 
L 2222 3500 
L 2222 3053 
L 1275 3053 
L 1275 0 
L 697 0 
L 697 3053 
L 147 3053 
L 147 3500 
L 697 3500 
L 697 3744 
Q 697 4328 969 4595 
Q 1241 4863 1831 4863 
L 2375 4863 
z
" transform="scale(0.015625)"/>
      </defs>
      <use xlink:href="#DejaVuSans-51"/>
      <use xlink:href="#DejaVuSans-48" transform="translate(63.375 0)"/>
      <use xlink:href="#DejaVuSans-57" transform="translate(124.90625 0)"/>
      <use xlink:href="#DejaVuSans-3" transform="translate(164.109375 0)"/>
      <use xlink:href="#DejaVuSans-52" transform="translate(195.890625 0)"/>
      <use xlink:href="#DejaVuSans-49" transform="translate(257.078125 0)"/>
      <use xlink:href="#DejaVuSans-3" transform="translate(292.28125 0)"/>
      <use xlink:href="#DejaVuSans-49" transform="translate(324.0625 0)"/>
      <use xlink:href="#DejaVuSans-48" transform="translate(359.265625 0)"/>
      <use xlink:href="#DejaVuSans-48" transform="translate(420.796875 0)"/>
     </g>
    </g>
   </g>
  </g>
 </g>
 <defs>
  <clipPath id="pa94dd9d62d">
   <rect x="45.92" y="24.72" width="591.28" height="183.831797"/>
  </clipPath>
 </defs>
</svg>
